<svg width="28" height="28" viewBox="0 0 28 28" fill="none" xmlns="http://www.w3.org/2000/svg">
<mask id="mask0_705_109" style="mask-type:alpha" maskUnits="userSpaceOnUse" x="0" y="0" width="28" height="28">
<rect width="28" height="28" fill="#C4C4C4"/>
</mask>
<g mask="url(#mask0_705_109)">
<path d="M13.9704 14.1878C12.3884 14.1878 10.6197 14.0128 9.49035 12.7225C8.54069 11.6375 8.23386 9.95984 8.55119 7.59851C8.99452 4.30151 11.0199 2.33334 13.9715 2.33334C16.9232 2.33334 18.9497 4.30151 19.3919 7.59851C19.7092 9.95984 19.4012 11.6352 18.4515 12.7225C17.3199 14.0128 15.5524 14.1867 13.9715 14.1867L13.9704 14.1878ZM20.7942 25.6795H7.14652C6.37302 25.6795 5.68819 25.3528 5.22152 24.7625C4.72919 24.1395 4.54952 23.2808 4.74319 22.4665C5.71619 18.3482 9.51019 15.47 13.9692 15.47C18.4282 15.47 22.2222 18.347 23.1975 22.4665C23.3889 23.2808 23.2092 24.1395 22.7169 24.7613C22.2502 25.3505 21.5677 25.6772 20.7942 25.6772V25.6795Z" fill="black"/>
</g>
</svg>
