<svg width="18" height="20" viewBox="0 0 18 20" fill="none" xmlns="http://www.w3.org/2000/svg">
<path d="M8.69203 12.315C6.60403 12.315 4.90503 10.617 4.90503 8.52899C4.90503 6.44099 6.60503 4.73999 8.69203 4.73999C10.779 4.73999 12.479 6.43999 12.479 8.52699C12.479 10.614 10.779 12.312 8.69203 12.312V12.315ZM8.69203 6.24199C7.43203 6.24199 6.40503 7.26799 6.40503 8.52899C6.40503 9.78999 7.43203 10.814 8.69203 10.814C9.95203 10.814 10.979 9.78899 10.979 8.52799C10.979 7.26699 9.95203 6.23999 8.69203 6.23999V6.24199Z" fill="black"/>
<path d="M17.384 8.69C17.384 3.9 13.484 0 8.692 0C3.9 0 0 3.9 0 8.69C0 10.592 0.603 12.398 1.743 13.913L1.746 13.911L1.753 13.926C3.381 15.996 8.031 19.683 8.228 19.838C8.366 19.948 8.53 20.001 8.693 20.001C8.856 20.001 9.02 19.948 9.158 19.839C9.355 19.684 14.005 15.999 15.633 13.927L15.64 13.913L15.642 13.915C16.782 12.399 17.384 10.595 17.384 8.692V8.69ZM8.692 18.29C7.468 17.3 4.172 14.575 2.936 13.005C1.996 11.755 1.5 10.263 1.5 8.693C1.5 4.727 4.727 1.5 8.692 1.5C12.657 1.5 15.884 4.726 15.884 8.69C15.884 10.26 15.387 11.752 14.448 13.003C13.212 14.573 9.916 17.297 8.692 18.288V18.29Z" fill="black"/>
</svg>
