<svg width="24" height="24" viewBox="0 0 24 24" fill="none" xmlns="http://www.w3.org/2000/svg">
<path d="M19.708 2H4.292C3.028 2 2 3.028 2 4.292V19.708C2 20.972 3.028 22 4.292 22H19.708C20.972 22 22 20.972 22 19.708V4.292C22 3.028 20.972 2 19.708 2ZM20.5 19.708C20.5 20.145 20.145 20.5 19.708 20.5H4.292C3.855 20.5 3.5 20.145 3.5 19.708V6.418C3.5 5.981 3.854 5.628 4.29 5.626H19.71C20.146 5.626 20.5 5.981 20.5 6.416V19.71V19.708Z" fill="black"/>
<path d="M7.03207 10.035C7.74176 10.035 8.31707 9.45971 8.31707 8.75003C8.31707 8.04034 7.74176 7.46503 7.03207 7.46503C6.32238 7.46503 5.74707 8.04034 5.74707 8.75003C5.74707 9.45971 6.32238 10.035 7.03207 10.035Z" fill="black"/>
<path d="M7.03207 14.441C7.74176 14.441 8.31707 13.8657 8.31707 13.156C8.31707 12.4463 7.74176 11.871 7.03207 11.871C6.32238 11.871 5.74707 12.4463 5.74707 13.156C5.74707 13.8657 6.32238 14.441 7.03207 14.441Z" fill="black"/>
<path d="M16.9681 10.035C17.6778 10.035 18.2531 9.45971 18.2531 8.75003C18.2531 8.04034 17.6778 7.46503 16.9681 7.46503C16.2584 7.46503 15.6831 8.04034 15.6831 8.75003C15.6831 9.45971 16.2584 10.035 16.9681 10.035Z" fill="black"/>
<path d="M16.9681 14.441C17.6778 14.441 18.2531 13.8657 18.2531 13.156C18.2531 12.4463 17.6778 11.871 16.9681 11.871C16.2584 11.871 15.6831 12.4463 15.6831 13.156C15.6831 13.8657 16.2584 14.441 16.9681 14.441Z" fill="black"/>
<path d="M12.0001 10.035C12.7098 10.035 13.2851 9.45971 13.2851 8.75003C13.2851 8.04034 12.7098 7.46503 12.0001 7.46503C11.2904 7.46503 10.7151 8.04034 10.7151 8.75003C10.7151 9.45971 11.2904 10.035 12.0001 10.035Z" fill="black"/>
<path d="M12.0001 14.441C12.7098 14.441 13.2851 13.8657 13.2851 13.156C13.2851 12.4463 12.7098 11.871 12.0001 11.871C11.2904 11.871 10.7151 12.4463 10.7151 13.156C10.7151 13.8657 11.2904 14.441 12.0001 14.441Z" fill="black"/>
<path d="M7.03207 18.771C7.74176 18.771 8.31707 18.1957 8.31707 17.486C8.31707 16.7763 7.74176 16.201 7.03207 16.201C6.32238 16.201 5.74707 16.7763 5.74707 17.486C5.74707 18.1957 6.32238 18.771 7.03207 18.771Z" fill="black"/>
<path d="M12.0001 18.771C12.7098 18.771 13.2851 18.1957 13.2851 17.486C13.2851 16.7763 12.7098 16.201 12.0001 16.201C11.2904 16.201 10.7151 16.7763 10.7151 17.486C10.7151 18.1957 11.2904 18.771 12.0001 18.771Z" fill="black"/>
</svg>
