<svg width="20" height="20" viewBox="0 0 20 20" fill="none" xmlns="http://www.w3.org/2000/svg">
<path d="M16.8624 12.175C16.5499 10.7208 14.9107 9.25332 13.5207 8.73748L13.0674 4.61415L14.3132 2.74582C14.4441 2.54915 14.4566 2.29748 14.3441 2.08998C14.2324 1.88165 14.0174 1.75415 13.7816 1.75415H6.16489C5.92822 1.75415 5.71322 1.88248 5.60156 2.08998C5.48989 2.29832 5.50156 2.55082 5.63322 2.74665L6.88156 4.61915L6.47822 8.73832C5.08822 9.25498 3.45072 10.7217 3.14156 12.1683C3.10822 12.3017 3.12822 12.505 3.25156 12.6633C3.33739 12.7733 3.50489 12.905 3.81822 12.905H7.19989L9.61989 18.4983C9.68489 18.6517 9.83656 18.75 10.0016 18.75C10.1666 18.75 10.3182 18.6517 10.3849 18.4983L12.8041 12.9042H16.1849C16.4982 12.9042 16.6649 12.7742 16.7516 12.6658C16.8732 12.5092 16.8949 12.3042 16.8641 12.1742L16.8624 12.175Z" fill="#536471"/>
</svg>
