<svg width="28" height="28" viewBox="0 0 28 28" fill="none" xmlns="http://www.w3.org/2000/svg">
<mask id="mask0_75_213" style="mask-type:alpha" maskUnits="userSpaceOnUse" x="0" y="0" width="28" height="28">
<rect width="28" height="28" fill="#C4C4C4"/>
</mask>
<g mask="url(#mask0_75_213)">
<path d="M26.0288 8.8025L14.242 2.43833C13.9818 2.29833 13.6703 2.29833 13.4101 2.43833L1.62564 8.8025C1.20097 9.03233 1.04231 9.56316 1.27214 9.989C1.42964 10.2807 1.73181 10.4475 2.04214 10.4475C2.18214 10.4475 2.32564 10.4125 2.45747 10.3425L3.4083 9.82915L5.3088 23.261C5.55847 24.6785 6.83481 25.6666 8.40981 25.6666H19.2388C20.8161 25.6666 22.0913 24.6773 22.3456 23.2318L24.2426 9.82682L25.197 10.3425C25.6216 10.5677 26.1536 10.4125 26.3835 9.98782C26.6121 9.56432 26.4535 9.0335 26.0288 8.8025ZM20.6178 22.9577C20.493 23.6647 19.7976 23.9166 19.2411 23.9166H8.41214C7.85214 23.9166 7.15797 23.6647 7.0378 22.9857L5.05214 8.94249L13.8255 4.2035L22.6011 8.94016L20.6178 22.9577Z" fill="black"/>
<path d="M9.41545 14.1855C9.41545 16.6168 11.3929 18.5955 13.8254 18.5955C16.2579 18.5955 18.2354 16.6168 18.2354 14.1855C18.2354 11.7541 16.2579 9.77546 13.8254 9.77546C11.3929 9.77546 9.41545 11.7541 9.41545 14.1855ZM16.4854 14.1855C16.4854 15.6531 15.2931 16.8455 13.8254 16.8455C12.3578 16.8455 11.1654 15.6531 11.1654 14.1855C11.1654 12.7178 12.3578 11.5255 13.8254 11.5255C15.2931 11.5255 16.4854 12.7178 16.4854 14.1855Z" fill="black"/>
</g>
</svg>
