<svg width="28" height="28" viewBox="0 0 28 28" fill="none" xmlns="http://www.w3.org/2000/svg">
<mask id="mask0_705_33" style="mask-type:alpha" maskUnits="userSpaceOnUse" x="0" y="0" width="28" height="28">
<rect width="28" height="28" fill="#C4C4C4"/>
</mask>
<g mask="url(#mask0_705_33)">
<path d="M25.314 19.2944C25.2907 19.2757 22.8173 17.381 22.8605 12.2594C22.8838 9.30536 21.9131 6.68035 20.1223 4.86852C18.5181 3.24335 16.3458 2.34501 14.0067 2.33334H13.9915C11.6535 2.34501 9.48115 3.24336 7.87581 4.86969C6.08615 6.68152 5.11315 9.30536 5.13882 12.2594C5.18199 17.311 2.78215 19.2209 2.68648 19.2944C2.38315 19.5195 2.25948 19.9127 2.37731 20.272C2.49631 20.6314 2.8323 20.8729 3.20797 20.8729H8.94799C9.06699 23.5679 11.2778 25.7262 13.9996 25.7262C16.7215 25.7262 18.93 23.5679 19.0478 20.8729H24.7901C25.1658 20.8729 25.5018 20.6325 25.6185 20.2732C25.7386 19.915 25.615 19.5207 25.3117 19.2955L25.314 19.2944ZM14.0008 23.9727C12.245 23.9727 10.8158 22.5995 10.7015 20.8717H17.3001C17.1835 22.5984 15.7566 23.975 14.0008 23.975V23.9727ZM5.11082 19.1217C5.97415 17.801 6.91682 15.589 6.88882 12.243C6.86782 9.72301 7.64015 7.59735 9.12065 6.09818C10.3958 4.80668 12.1306 4.09151 14.0008 4.08334C15.871 4.09268 17.6023 4.80669 18.8775 6.09936C20.3591 7.59852 21.1326 9.72302 21.1116 12.2442C21.0836 15.5902 22.0275 17.8034 22.8908 19.1229H5.11082V19.1217Z" fill="black"/>
</g>
</svg>
